<svg width="424" height="224" viewBox="0 0 424 224" fill="none" xmlns="http://www.w3.org/2000/svg">
<path d="M423.446 186.323H0.761536V187.416H423.446V186.323Z" fill="#B1B1B1"/>
<g opacity="0.2">
<path d="M409.456 13.4036H327.573V157.453H409.456V13.4036Z" fill="#04061C"/>
<path d="M404.025 17.3542H333.004V153.502H404.025V17.3542Z" fill="#0E8780"/>
<path d="M409.456 13.4036H404.025V157.453H409.456V13.4036Z" fill="#04061C"/>
<path d="M312.018 13.8471H230.135V157.897H312.018V13.8471Z" fill="#04061C"/>
<path d="M306.587 17.798H235.566V153.946H306.587V17.798Z" fill="#0E8780"/>
<path d="M312.018 13.8471H306.587V157.897H312.018V13.8471Z" fill="#04061C"/>
<path d="M369.286 17.3542H367.743V153.502H369.286V17.3542Z" fill="#04061C"/>
<path d="M404.025 41.7878H333.004V42.9105H404.025V41.7878Z" fill="#04061C"/>
<path d="M404.025 84.8667H333.004V85.9893H404.025V84.8667Z" fill="#04061C"/>
<path d="M404.025 127.947H333.004V129.069H404.025V127.947Z" fill="#04061C"/>
<path d="M271.848 17.798H270.304V153.946H271.848V17.798Z" fill="#04061C"/>
<path d="M306.587 42.2308H235.565V43.3535H306.587V42.2308Z" fill="#04061C"/>
<path d="M306.587 85.3097H235.565V86.4323H306.587V85.3097Z" fill="#04061C"/>
<path d="M306.587 128.389H235.565V129.512H306.587V128.389Z" fill="#04061C"/>
</g>
<path d="M78.4655 45.152C78.4655 45.152 91.3776 39.5611 97.0495 32.0679C97.0495 32.0679 101.645 24.1812 107.021 25.0338C107.021 25.0338 111.063 24.3858 116.733 31.8963C122.404 39.4068 124.346 39.9526 130.26 41.9694L126.864 48.1938C126.864 48.1938 111.324 37.8862 106.635 33.7819C106.635 33.7819 86.5014 47.1135 81.7757 48.0133L78.4655 45.1525V45.152Z" fill="#999999"/>
<path d="M63.297 113.032C63.1024 112.746 58.5543 105.965 59.4139 101.798C60.1772 98.0976 55.672 91.22 55.6263 91.151C51.5333 84.2945 47.9156 82.0827 47.8796 82.0617L48.4645 81.0787C48.6211 81.1712 52.3488 83.4278 56.5968 90.5443C56.7796 90.82 61.3949 97.8659 60.5361 102.029C59.7735 105.726 64.2011 112.327 64.2464 112.392L63.2974 113.033L63.297 113.032Z" fill="#79C9C5"/>
<path d="M139.03 201.638H135.595V23.3915C135.595 21.7832 134.961 20.2779 133.813 19.1508C132.663 18.0237 131.136 17.4033 129.532 17.4456L62.7427 18.6062C55.0312 18.7402 48.7562 25.1124 48.7562 32.809V194.976H45.3209V32.809C45.3209 23.2542 53.1097 15.3457 62.6829 15.1782L129.472 14.0176C132.023 13.9897 134.41 14.9295 136.221 16.7057C138.032 18.4823 139.03 20.8572 139.03 23.3915V201.638Z" fill="#04061C"/>
<path d="M46.6187 84.6586L60.8614 56.3383C60.8614 56.3383 63.1825 52.1271 66.5583 51.1796L76.218 45.1833L79.8628 42.9211C79.8628 42.9211 85.1266 49.1794 93.5666 49.074C93.5666 49.074 114.456 50.0218 124.478 38.1249L146.212 47.7402C146.212 47.7402 155.812 53.4959 159.821 60.7602L169.304 77.2772C169.304 77.2772 159.425 107.632 152.25 108.684L147.477 100.116C147.477 100.116 144.946 180.168 143.891 182.273C143.891 182.273 117.286 186.669 107.073 182.725C101.117 180.425 88.0812 186.274 88.0812 186.274C88.0812 186.274 71.9758 183.295 69.4438 182.663L68.5624 111.926L61.4936 113.085C61.4936 113.085 57.5899 110.032 57.168 102.346C56.7461 94.6606 46.6179 84.659 46.6179 84.659L46.6187 84.6586Z" fill="#09524D"/>
<path d="M95.235 53.1592C93.6561 53.1592 92.1059 53.0667 90.6221 52.858C81.248 51.5388 75.9742 45.7516 75.7541 45.5062L76.6081 44.7452C76.6594 44.8022 81.8398 50.469 90.7823 51.7265C99.8009 52.9953 112.281 49.673 116.96 47.6122C121.96 45.4081 126.729 39.784 127.013 39.218L128.037 39.7291C127.576 40.6499 122.658 46.3487 117.423 48.6565C113.777 50.2624 104.072 53.1592 95.2354 53.1592H95.235Z" fill="#082E2B"/>
<path d="M106.845 26.9558H105.7V22.8915C103.085 22.6057 101.043 20.3883 101.043 17.7034C101.043 14.8264 103.389 12.4854 106.273 12.4854C109.156 12.4854 111.502 14.8268 111.502 17.7034H110.357C110.357 15.4557 108.525 13.6278 106.273 13.6278C104.02 13.6278 102.188 15.4557 102.188 17.7034C102.188 19.9511 104.02 21.7798 106.273 21.7798H106.845V26.9554V26.9558Z" fill="#999999"/>
<path d="M75.0708 181.093L74.9357 179.959C75.1112 179.938 92.5343 177.85 98.9525 174.881C102.594 173.19 106.525 174.903 109.683 176.276C110.867 176.79 111.986 177.277 112.859 177.467C115.356 178.013 133.122 178.222 144.348 175.712L144.599 176.828C133.246 179.363 115.473 179.207 112.614 178.583C111.631 178.369 110.463 177.861 109.226 177.323C106.279 176.042 102.612 174.445 99.4347 175.917C92.851 178.963 75.7937 181.008 75.0712 181.093L75.0708 181.093Z" fill="#082E2B"/>
<path d="M106.243 14.4368L94.8924 14.6359L94.9528 18.0642L106.303 17.8651L106.243 14.4368Z" fill="#04061C"/>
<path d="M83.695 27.3418H82.5498V23.2775C79.9345 22.9917 77.8928 20.7743 77.8928 18.0894C77.8928 15.2123 80.2391 12.8714 83.1226 12.8714C86.006 12.8714 88.3523 15.2128 88.3523 18.0894H87.2071C87.2071 15.8417 85.375 14.0138 83.1226 14.0138C80.8701 14.0138 79.038 15.8417 79.038 18.0894C79.038 20.3371 80.8701 22.1658 83.1226 22.1658H83.695V27.3414V27.3418Z" fill="#999999"/>
<path d="M83.0925 14.8258L71.7431 15.0211L71.8024 18.4495L83.1517 18.2542L83.0925 14.8258Z" fill="#04061C"/>
<path d="M98.753 38.9591C95.8282 35.7341 94.9496 34.5848 94.914 34.5368L95.8266 33.8473C95.8351 33.8586 96.7235 35.0192 99.6021 38.1917L98.7534 38.9595L98.753 38.9591Z" fill="#5E5F5F"/>
<path d="M55.7298 48.6255C55.7298 48.6255 68.205 42.121 73.3211 34.2399C73.3211 34.2399 77.3352 26.0431 82.7587 26.5074C82.7587 26.5074 86.7433 25.5704 92.9415 32.6538C99.1397 39.7372 100.287 41.1174 106.33 42.7039L104.222 48.1811C104.222 48.1811 87.9783 39.0175 83.0055 35.2604C83.0055 35.2604 63.8863 50.0045 59.2378 51.2418L55.7294 48.6263L55.7298 48.6255Z" fill="#999999"/>
<path d="M26.1668 88.1572L40.4094 59.8369C40.4094 59.8369 42.7306 55.6257 46.1064 54.6783L55.7661 48.682L59.4109 46.4197C59.4109 46.4197 64.6746 52.678 73.1147 52.5727C73.1147 52.5727 94.0037 53.5205 104.026 41.6236L125.76 51.2389C125.76 51.2389 135.36 56.9946 139.369 64.2589L147.282 75.629C147.282 75.629 138.314 103.528 131.14 104.581L127.026 103.615C127.026 103.615 124.494 139.745 123.439 141.85C123.439 141.85 105.166 145.373 94.9535 141.429C88.9969 139.129 67.6289 145.851 67.6289 145.851C67.6289 145.851 57.9227 147.536 55.3907 146.904L48.1112 115.425L41.0425 116.583C41.0425 116.583 37.1388 113.53 36.7169 105.845C36.295 98.1593 26.1668 88.1576 26.1668 88.1576V88.1572Z" fill="#0B766E"/>
<path d="M48.7567 202.152H45.3214V32.8059C45.3214 23.2511 53.1102 15.3426 62.6834 15.175L62.7436 18.6031C55.0313 18.7371 48.7567 25.1093 48.7567 32.8059V202.152Z" fill="#04061C"/>
<path d="M74.7841 56.6576C73.2052 56.6576 71.655 56.5651 70.1704 56.3564C60.7963 55.0372 55.5225 49.25 55.3028 49.0046L56.1568 48.2436C56.2081 48.3006 61.3881 53.9675 70.3306 55.2249C79.3524 56.4925 91.8317 53.1694 96.508 51.1094C101.508 48.9065 106.279 43.2832 106.562 42.7164L107.586 43.2275C107.125 44.1483 102.207 49.8471 96.9708 52.1541C93.3268 53.7612 83.623 56.658 74.7841 56.658V56.6576Z" fill="#09524D"/>
<path d="M42.845 116.532C42.6508 116.245 38.1023 109.466 38.9619 105.298C39.7257 101.597 35.2208 94.7204 35.1747 94.6513C31.0817 87.7948 27.4632 85.5822 27.4272 85.5608L28.0121 84.5787C28.1687 84.6711 31.8972 86.9277 36.1448 94.0442C36.3276 94.3199 40.9429 101.365 40.0833 105.529C39.3207 109.225 43.7483 115.825 43.7936 115.891L42.8446 116.532H42.845Z" fill="#09524D"/>
<path d="M54.6194 143.314L54.4843 142.18C54.6599 142.158 72.0829 140.069 78.5011 137.1C83.3219 134.868 92.2017 135.747 95.7461 136.522C98.0564 137.025 112.827 138.485 124.155 135.951L124.405 137.067C112.899 139.636 98.215 138.23 95.501 137.638C92.0791 136.892 83.5387 136.027 78.9829 138.136C72.3992 141.182 55.3423 143.229 54.6194 143.313V143.314Z" fill="#09524D"/>
<path d="M150.323 105.29L149.823 104.263L150.073 104.777L149.82 104.265C149.877 104.235 155.536 101.279 158.413 88.1903C160.243 79.862 166.328 73.173 166.587 72.8928L167.43 73.6651C167.369 73.7321 161.295 80.4142 159.532 88.4358C156.52 102.14 150.575 105.168 150.324 105.29H150.323Z" fill="#082E2B"/>
<path d="M270.316 13.1569C270.316 13.1569 271.831 5.19229 250.413 0.857144C228.994 -3.478 216.365 18.6801 216.365 18.6801C216.365 18.6801 211.112 25.724 211.011 30.8834C211.011 30.8834 206.565 38.362 209.091 46.2257C211.617 54.0895 214.648 59.1307 222.528 56.5091C230.409 53.888 240.411 35.841 240.411 35.841C240.411 35.841 256.475 12.6527 270.316 13.1565V13.1569Z" fill="#753C1C"/>
<path d="M200.931 93.3531C200.931 93.3531 215.638 87.6762 220.185 71.2495C220.185 71.2495 222.502 55.2137 220.185 44.9561L230.795 50.8127L254.85 83.6737L253.483 86.9964C253.483 86.9964 261.783 101.738 262.941 103.616C264.099 105.494 253.772 123.547 234.952 123.402C216.132 123.258 202.957 114.446 200.931 93.3531Z" fill="#ECC19C"/>
<path d="M221.106 56.4796C221.106 56.4796 221.687 49.8746 220.185 44.9561L230.795 50.8127L254.85 83.6736L254.036 85.6501L259.664 96.1821C259.664 96.1821 243.574 94.8362 235.668 85.3747C233.683 82.9979 232.221 80.2371 231.185 77.3201C229.616 72.8965 226.838 64.238 227.423 59.8366C227.423 59.8366 221.965 60.38 221.105 56.48L221.106 56.4796Z" fill="#DDA073"/>
<path d="M267.381 19.2407C267.381 19.2407 279.397 19.9629 280.265 34.9879C280.265 34.9879 280.265 42.0669 278.673 45.2451C277.08 48.4232 276.067 50.8792 276.067 50.8792C276.067 50.8792 275.343 51.4573 275.632 54.0574C275.921 56.6576 273.75 65.6149 271.434 68.2154C269.118 70.8159 267.251 73.081 266.093 74.9589C264.934 76.8368 262.941 80.6791 262.941 80.6791C262.941 80.6791 260.92 87.4448 253.017 85.1898C246.289 83.2703 230.299 79.051 229.575 57.8141C229.494 55.4122 229.449 53.1189 229.435 50.941C229.305 31.0786 247.22 15.7847 266.837 19.1446C267.018 19.1757 267.199 19.2076 267.38 19.2411L267.381 19.2407Z" fill="#ECC19C"/>
<path d="M230.795 50.8132C230.89 52.7238 229.614 54.4702 227.77 54.995C226.195 55.4435 224.347 55.2909 222.936 53.1594C219.896 48.5683 218.654 43.943 221.839 35.2747C225.024 26.6064 233.214 32.8211 233.504 38.5998C233.504 38.5998 230.455 43.9312 230.795 50.8132Z" fill="#ECC19C"/>
<path d="M228.186 6.9064C228.186 6.9064 229.5 4.08346 224.852 3.7811C224.852 3.7811 223.499 0.958154 220.185 2.57127C220.185 2.57127 220.104 0.365549 217.679 2.07353C217.679 2.07353 217.376 3.27731 214.547 2.36983C214.547 2.36983 212.224 2.43321 211.213 4.16581C210.203 5.89841 209.092 13.5607 210.102 16.686C211.113 19.8113 210.91 21.6263 215.861 22.231C220.812 22.8357 228.186 6.9064 228.186 6.9064Z" fill="#753C1C"/>
<path d="M268.124 64.9449C268.014 64.9449 267.903 64.9392 267.79 64.9291C264.566 64.6377 263.517 63.9381 260.983 62.2507L260.717 62.0731L261.352 61.1224L261.618 61.3C264.117 62.9652 264.959 63.5251 267.894 63.7908C268.496 63.8477 268.941 63.7003 269.26 63.3487C270.171 62.3456 269.943 59.896 269.777 59.0366C269.756 58.9183 269.239 56.1353 268.836 50.9069C268.477 46.2367 272.368 44.4512 272.407 44.4334L272.875 45.4769C272.745 45.5363 269.682 46.9689 269.978 50.8201C270.375 55.9779 270.898 58.7956 270.903 58.8235C270.975 59.1928 271.566 62.5095 270.111 64.1153C269.616 64.6611 268.934 64.9445 268.125 64.9445L268.124 64.9449Z" fill="#9E5C2B"/>
<path d="M252.42 67.4276C255.928 70.1036 265.311 68.9935 266.352 71.0034L263.923 74.3435C260.116 73.7008 257.685 72.8858 254.695 70.4447C253.715 69.6422 252.833 68.7981 252.049 67.7518L252.421 67.4276H252.42Z" fill="white"/>
<path d="M262.134 77.911C260.2 77.8003 255.879 76.1457 255.696 76.0754L256.108 75.0085C256.151 75.025 260.443 76.67 262.2 76.7706L262.134 77.911Z" fill="#9E5C2B"/>
<path d="M262.396 50.1304L261.865 48.4374C261.83 47.9933 261.647 47.6595 261.288 47.3882C259.855 46.3079 256.236 46.7322 254.963 46.9865L254.737 45.8663C254.944 45.8251 259.839 44.8644 261.978 46.4767C262.582 46.932 262.925 47.5367 263.001 48.2779L263.486 49.78L262.396 50.1304H262.396Z" fill="#9E5C2B"/>
<path d="M276.69 52.926C276.053 51.5131 275.245 50.6529 274.289 50.3683C273.108 50.0167 272.049 50.6629 272.039 50.6706L270.867 51.3246L270.309 50.3271L271.452 49.6901C271.484 49.6687 272.924 48.7717 274.616 49.2727C275.906 49.6578 276.955 50.7292 277.734 52.4577L276.69 52.9264L276.69 52.926Z" fill="#9E5C2B"/>
<path d="M266.298 43.89C264.627 41.3222 261.027 40.6436 258.093 40.2342C256.031 40.0179 253.968 40.0191 251.887 40.1164L251.772 38.9796C253.184 38.8004 254.604 38.6369 256.042 38.5759C260.262 38.4665 265.262 38.7673 268.257 42.1868C268.407 42.3947 268.52 42.5183 268.699 42.884L266.298 43.89Z" fill="#9E5C2B"/>
<path d="M273.534 43.1635C275.219 42.8708 279.953 41.6371 280.237 44.2046L279.093 44.2546C278.951 44.1105 278.665 44.121 278.432 44.1214C277.032 44.1981 275.549 44.7673 274.241 45.2961L273.534 43.1635Z" fill="#9E5C2B"/>
<path d="M262.018 48.6685C261.575 49.6071 260.454 50.01 259.513 49.5683C258.572 49.1267 258.169 48.0073 258.611 47.0683C259.054 46.1294 259.979 46.609 260.92 47.0506C261.86 47.4922 262.461 47.7296 262.018 48.6685H262.018Z" fill="#9E5C2B"/>
<path d="M275.099 51.2879C274.984 52.1708 274.173 52.7933 273.289 52.6782C272.404 52.5632 271.78 51.7546 271.895 50.8717C272.011 49.9889 272.892 50.1383 273.777 50.2533C274.662 50.3684 275.214 50.4051 275.099 51.2879Z" fill="#9E5C2B"/>
<path d="M219.815 9.05701L218.711 8.75143C219.84 4.69725 224.077 3.43493 224.256 3.38367L224.574 4.48168C224.537 4.49299 220.769 5.62774 219.815 9.05701Z" fill="#4D2B14"/>
<path d="M219.416 13.8492C217.361 7.89004 220.078 2.75319 220.195 2.53802L221.203 3.08057C221.177 3.12861 218.612 8.00509 220.499 13.4766L219.416 13.8492Z" fill="#4D2B14"/>
<path d="M215.134 22.2088L214.116 21.6865C218.549 13.0993 227.535 5.03096 227.625 4.95062L228.388 5.8032C228.3 5.88232 219.468 13.8135 215.134 22.2088H215.134Z" fill="#4D2B14"/>
<path d="M213.118 38.7458C212.805 38.6776 210.073 37.8799 210.439 30.8526L211.583 30.9127C211.268 36.9522 213.358 37.6272 213.379 37.6341L213.118 38.7454V38.7458Z" fill="#4D2B14"/>
<path d="M207.706 101.724C207.706 101.724 212.306 119.745 233.602 118.895C254.898 118.044 258.404 100.533 258.404 100.533C258.404 100.533 280.766 191.307 280.273 201.337L193.902 201.608L207.706 101.723V101.724Z" fill="#FAE5CF"/>
<path d="M232.027 124.063C221.638 124.063 215.344 120.589 211.813 117.525C207.607 113.874 206.325 110.079 206.273 109.92L207.361 109.562C207.559 110.161 212.477 124.167 234.918 122.832C260.235 121.313 264.707 100.629 264.749 100.421L265.872 100.646C265.828 100.862 261.206 122.4 234.986 123.973C233.965 124.034 232.978 124.063 232.027 124.063Z" fill="#F7DEBF"/>
<path d="M213.794 83.5461C213.794 83.5461 211.805 83.4904 208.209 86.3852C204.612 89.28 204.148 91.0162 198.463 91.1321C192.778 91.2479 192.314 94.6054 192.314 94.6054C192.314 94.6054 185.933 96.342 182.22 96.2261C178.507 96.1103 169.457 102.247 166.325 107.688C163.192 113.13 162.032 116.372 162.032 116.372C162.032 116.372 161.568 124.361 160.639 128.645C159.711 132.928 156.579 143.464 156.579 143.464C156.579 143.464 155.07 149.253 155.883 153.769C156.695 158.284 156.579 163.61 156.579 163.61C156.579 163.61 152.634 167.894 151.126 168.473C149.617 169.052 148.109 172.757 150.082 174.84C152.054 176.924 153.214 178.777 152.402 180.05C151.59 181.324 148.663 183.871 149.14 186.534C149.617 189.196 152.054 189.776 152.286 191.281C152.518 192.786 150.541 200.013 154.95 201.866L198.927 201.7C198.927 201.7 211.689 122.16 209.717 102.593C209.717 102.593 208.206 92.3633 210.761 88.6999C213.316 85.0365 213.793 83.5453 213.793 83.5453L213.794 83.5461Z" fill="#0B766E"/>
<path d="M253.913 85.6501C253.913 85.6501 262.283 89.5037 265.314 90.1334C268.344 90.7636 269.354 91.2674 270.743 92.7796C270.743 92.7796 281.35 95.0034 286.275 95.3405C291.2 95.6776 295.998 100.088 299.786 105.506C303.574 110.925 304.585 115.083 304.585 115.083C304.585 115.083 306.605 125.794 316.076 134.614C316.076 134.614 320.495 152.13 318.98 155.028C317.464 157.926 316.328 157.044 317.212 159.186C318.096 161.328 316.454 163.218 316.454 163.218C316.454 163.218 318.981 163.218 319.296 164.605L325.925 181.994C325.925 181.994 328.198 185.9 323.652 189.555C323.652 189.555 320.748 196.107 317.464 198.501C314.181 200.896 314.065 201.608 314.065 201.608L274.405 201.355C274.405 201.355 268.092 152.76 264.43 138.647C260.768 124.534 259.07 104.726 255.969 98.9539C251.705 91.0155 253.913 85.6497 253.913 85.6497V85.6501Z" fill="#0B766E"/>
<path d="M190.522 153.826L189.378 153.771C189.4 153.343 191.491 110.945 191.617 102.785L191.741 94.5978L192.886 94.6136L192.762 102.802C192.636 110.982 190.544 153.399 190.522 153.826Z" fill="#09524D"/>
<path d="M182.263 143.266V175.733L278.206 172.116L275.114 139.559L182.263 143.266Z" fill="#E8B57D"/>
<path d="M276.776 190.203L278.206 172.116L182.263 175.733L188.546 193.338L276.776 190.203Z" fill="#DE9E66"/>
<path d="M218.42 141.868V160.057L242.208 158.852L241.466 140.856L218.42 141.868Z" fill="#F5D1A3"/>
<path d="M289.759 201.529L288.33 190.216C288.262 189.745 286.626 178.405 286.505 175.02C286.386 171.706 283.987 157.882 283.963 157.743C283.878 157.294 275.327 111.905 273.648 104.247C271.987 96.671 270.246 93.0665 270.228 93.031L271.257 92.5288C271.33 92.6774 273.072 96.2717 274.766 104.004C276.449 111.676 285.003 157.082 285.089 157.539C285.19 158.119 287.527 171.587 287.648 174.98C287.767 178.303 289.447 189.946 289.464 190.063L290.894 201.386L289.758 201.529H289.759Z" fill="#09524D"/>
<path d="M295.25 201.372C295.24 201.209 294.276 184.905 294.035 179.632C293.794 174.329 295.191 154.597 295.251 153.76L296.392 153.84C296.378 154.044 294.941 174.344 295.179 179.58C295.419 184.846 296.383 201.142 296.393 201.306L295.25 201.373V201.372Z" fill="#09524D"/>
<path d="M156.73 164.112L156.179 163.11C156.339 163.022 160.162 160.97 164.923 161.839C168.997 162.587 170.004 160.831 170.014 160.814L171.038 161.325C170.985 161.428 169.698 163.872 164.715 162.964C160.37 162.164 156.765 164.092 156.73 164.112L156.73 164.112Z" fill="#09524D"/>
<path d="M152.786 179.261L152.461 178.165C152.71 178.092 158.626 176.362 163.061 176.857L162.935 177.993C158.731 177.529 152.845 179.244 152.786 179.261L152.786 179.261Z" fill="#09524D"/>
<path d="M152.559 190.904L151.764 190.082C151.855 189.995 153.992 187.948 156.247 187.069C158.363 186.243 160.886 184.928 160.912 184.914L161.443 185.928C161.337 185.982 158.84 187.284 156.664 188.134C154.626 188.928 152.58 190.884 152.56 190.903L152.559 190.904Z" fill="#09524D"/>
<path d="M159.525 201.881C157.524 195.778 161.645 188.818 161.822 188.525L162.803 189.112C162.763 189.181 158.776 195.923 160.613 201.526L159.525 201.881Z" fill="#09524D"/>
<path d="M162.436 188.818C162.436 188.818 161.336 197.547 167.225 201.339L183.561 201.419C183.561 201.419 185.805 197.35 184.19 194.032C184.19 194.032 188.984 197.386 193.902 193.339C193.902 193.339 197.679 191.472 197.205 188.818C197.205 188.818 199.959 187.87 199.105 185.5C198.25 183.13 192.74 185.5 192.74 185.5C192.74 185.5 194.925 183.842 193.405 182.727C191.885 181.613 190.175 181.708 190.175 181.708C190.175 181.708 185.505 181.881 184.394 181.706C180.723 181.129 179.812 174.259 179.812 174.259L182.263 173.65C182.263 173.65 188.037 173.075 187.467 170.515C186.897 167.956 184.011 168.152 181.441 168.057C181.441 168.057 179.182 166.373 180.723 160.058C180.723 160.058 181 157.061 182.263 156.492V150.458C182.263 150.458 178.016 150.71 176.971 153.648C175.926 156.587 173.361 164.265 171.271 166.351C169.181 168.436 166.426 175.562 166.426 175.562C166.426 175.562 163.701 186.467 162.437 188.818L162.436 188.818Z" fill="#ECC19C"/>
<path d="M299.729 179.822L299.025 178.92C305.419 173.948 315.79 165.512 316.405 164.045L317.461 164.484C316.529 166.713 301.446 178.486 299.729 179.822V179.822Z" fill="#09524D"/>
<path d="M304.938 162.534L304.292 161.59C308.665 158.61 316.407 157.554 316.734 157.509L316.885 158.643C316.808 158.653 309.084 159.709 304.938 162.535V162.534Z" fill="#09524D"/>
<path d="M183.937 195.082C174.897 190.636 172.096 176.962 171.981 176.382L173.104 176.161C173.131 176.297 175.914 189.862 184.444 194.058L183.937 195.082V195.082Z" fill="#9E5C2B"/>
<path d="M186.089 192.474C183.612 192.474 181.894 190.907 181.871 190.885L182.652 190.049C182.756 190.145 185.205 192.351 188.361 190.77C191.952 188.975 196.701 187.881 196.901 187.835L197.156 188.949C197.109 188.96 192.34 190.06 188.874 191.793C187.881 192.289 186.94 192.474 186.089 192.474Z" fill="#9E5C2B"/>
<path d="M182.486 188.293C181.688 188.293 180.888 188.231 180.104 188.083L180.314 186.961C185.63 187.949 192.032 184.698 192.096 184.664L192.622 185.68C192.384 185.803 187.487 188.293 182.486 188.293Z" fill="#9E5C2B"/>
<path d="M244.409 165.659C240.17 165.659 236.721 162.217 236.721 157.987C236.721 153.756 240.17 150.315 244.409 150.315C248.649 150.315 252.097 153.756 252.097 157.987C252.097 162.217 248.649 165.659 244.409 165.659ZM244.409 151.457C240.801 151.457 237.866 154.387 237.866 157.987C237.866 161.587 240.801 164.516 244.409 164.516C248.018 164.516 250.952 161.587 250.952 157.987C250.952 154.387 248.018 151.457 244.409 151.457Z" fill="#F7DEBF"/>
<path d="M239.079 158.31C238.345 158.31 237.571 158.127 236.825 157.63C234.694 156.215 232.382 157.625 232.359 157.639L231.751 156.67C231.872 156.596 234.723 154.859 237.46 156.679C239.535 158.061 242.148 156.003 242.174 155.981L242.894 156.871C242.796 156.949 241.081 158.309 239.079 158.309V158.31Z" fill="#F7DEBF"/>
<path d="M239.078 160.732C238.344 160.732 237.571 160.55 236.825 160.054C234.71 158.646 232.452 160.004 232.357 160.064L231.751 159.094C231.872 159.021 234.723 157.283 237.46 159.103C239.539 160.484 242.149 158.426 242.174 158.404L242.894 159.293C242.796 159.372 241.081 160.732 239.078 160.732V160.732Z" fill="#F7DEBF"/>
<path d="M225.453 50.4105L225.068 49.3347C225.972 49.0134 226.515 48.6351 226.639 48.2424C226.825 47.6554 226.168 46.7302 225.534 45.834C224.779 44.7695 223.923 43.5629 223.923 42.2663C223.923 40.5389 224.391 39.3715 225.313 38.7946C226.644 37.9642 228.337 38.7667 228.409 38.8002L227.91 39.8292C227.899 39.8248 226.707 39.2681 225.918 39.7655C225.216 40.2075 225.068 41.3689 225.068 42.2663C225.068 43.1992 225.78 44.2035 226.468 45.1744C227.301 46.3495 228.088 47.4588 227.731 48.5871C227.487 49.3549 226.742 49.952 225.452 50.4105H225.453Z" fill="#9E5C2B"/>
<path d="M257.586 16.6857C257.586 16.6857 244.352 32.6226 237.783 50.6288C237.443 51.5601 237.113 52.4846 236.743 53.4041C236.029 55.1824 234.461 60.0003 234.854 67.2973C235.121 72.2561 236.168 78.2867 234.147 80.1012C234.147 80.1012 235.245 75.492 231.334 67.6642C227.423 59.8368 228.792 45.4193 234.652 37.6561C240.512 29.8929 257.586 16.6857 257.586 16.6857Z" fill="#753C1C"/>
<path d="M270.013 11.6447C270.013 11.6447 276.897 12.4298 281.528 21.0093C283.979 25.5495 284.869 30.7937 284.179 35.9047C283.655 39.7914 282.244 44.0325 278.672 45.2451C278.672 45.2451 275.671 33.825 277.186 29.5904C277.186 29.5904 276.075 41.6435 265.366 45.2451C265.366 45.2451 268.599 41.1845 269.003 38.0592C269.003 38.0592 264.052 45.0158 252.737 44.3098C252.737 44.3098 257.99 41.3859 260.011 38.4625C260.011 38.4625 252.939 43.89 248.695 43.0414C248.695 43.0414 261.728 34.0264 263.446 29.0862C263.446 29.0862 243.542 47.9393 217.274 39.7728C217.274 39.7728 218.572 8.82133 270.012 11.6443L270.013 11.6447Z" fill="#753C1C"/>
<path d="M243.103 40.0894L242.121 39.5C257.794 13.4896 269.406 10.722 269.892 10.617L270.136 11.7328C270.022 11.7586 258.465 14.5941 243.103 40.089V40.0894Z" fill="#4D2B14"/>
<path d="M264.356 29.8281L263.487 29.0849C263.558 29.0013 270.634 20.6685 269.451 14.4034L270.576 14.1915C271.861 20.9963 264.664 29.4708 264.356 29.8281Z" fill="#4D2B14"/>
<path d="M182.33 169.194C176.508 168.59 175.689 165.54 175.658 165.41L176.768 165.129C176.795 165.228 177.496 167.545 182.449 168.058L182.331 169.194H182.33Z" fill="#9E5C2B"/>
<path d="M355.49 87.4335L382.561 92.6785C383.906 92.9389 386.234 96.3649 384.812 97.6309L329.725 150.928C329.309 151.355 328.702 151.539 328.119 151.412L301.297 147.3C299.336 146.157 298.98 143.475 300.575 141.862L353.938 87.9094C354.343 87.5025 354.925 87.3241 355.49 87.4335H355.49Z" fill="#D6D7D6"/>
<path d="M356.83 89.4985L383.901 94.7435C385.246 95.0039 385.765 96.6493 384.812 97.6311L331.065 152.993C330.65 153.421 330.043 153.604 329.46 153.478L301.732 147.458C300.401 147.168 299.915 145.526 300.876 144.562L355.279 89.9753C355.684 89.5683 356.266 89.3899 356.83 89.4993V89.4985Z" fill="#999999"/>
<path d="M353.088 129.944C353.088 129.944 346.941 130.781 347.919 127.853C348.897 124.925 349.595 125.204 353.088 124.646C356.582 124.088 360.354 122.136 362.31 124.646C364.266 127.155 361.192 129.386 361.192 129.386C361.192 129.386 356.861 132.732 357.42 134.824C357.979 136.915 361.052 137.686 358.817 140.856C358.817 140.856 356.442 141.377 356.721 143.05C357.001 144.723 356.442 146.118 354.486 146.396C354.486 146.396 352.25 148.488 352.25 149.464C352.25 150.44 349.875 150.932 349.037 151.452C349.037 151.452 347.795 152.818 345.787 154.312C344.122 155.551 342.766 157.158 341.754 158.968C341.097 160.144 340.161 161.669 338.847 163.539L324.446 185.576C324.446 185.576 310.447 201.595 308.156 185.172C306.55 173.66 319.297 164.606 319.297 164.606L328.917 153.799C328.917 153.799 332.577 152.57 332.734 150.85L337.199 146.237C337.199 146.237 328.581 145.143 328.895 141.937C328.895 141.937 328.973 140.295 331.167 139.905C331.167 139.905 329.269 138.333 329.913 136.856C330.697 135.058 331.48 134.979 332.968 135.058C332.968 135.058 333.282 132.087 335.554 132.009C337.826 131.93 348.089 132.556 348.089 132.556C348.089 132.556 351.35 132.492 353.088 129.944V129.944Z" fill="#ECC19C"/>
<path d="M336.396 157.083C334.61 156.926 333.33 156.276 332.59 155.15C331.348 153.263 332.155 150.776 332.19 150.67L333.277 151.029C333.27 151.05 332.611 153.107 333.55 154.528C334.089 155.343 335.081 155.819 336.496 155.945L336.396 157.083Z" fill="#9E5C2B"/>
<path d="M343.821 149.811C343.782 149.787 339.866 147.337 337.09 146.799L337.308 145.677C340.296 146.257 344.264 148.739 344.432 148.845L343.821 149.811H343.821Z" fill="#9E5C2B"/>
<path d="M350.52 145.724C350.449 145.702 343.371 143.563 339.278 142.62C335.148 141.67 331.045 140.465 331.004 140.453L331.328 139.357C331.369 139.369 335.44 140.565 339.535 141.507C343.666 142.458 350.782 144.609 350.852 144.63L350.52 145.724Z" fill="#9E5C2B"/>
<path d="M351.108 140.113C351.004 140.087 340.728 137.523 337.186 137.445C333.183 137.358 332.455 135.325 332.426 135.239L333.512 134.875L332.969 135.057L333.507 134.862C333.512 134.876 334.085 136.234 337.211 136.303C340.882 136.384 350.959 138.898 351.386 139.005L351.108 140.114V140.113Z" fill="#9E5C2B"/>
<path d="M358.692 128.645L353.014 129.381L353.162 130.515L358.839 129.779L358.692 128.645Z" fill="#9E5C2B"/>
<path d="M118.183 216.305L179.457 211.355C179.953 211.315 180.325 210.884 180.292 210.388L180.193 208.918C180.16 208.425 179.739 208.049 179.245 208.071L45.1772 206.219L99.1489 215.919L118.182 216.306L118.183 216.305Z" fill="#999999"/>
<path d="M13.4493 126.422L100.67 123.528C102.603 123.464 104.294 124.815 104.653 126.712L120.97 212.861C121.438 215.333 119.481 217.596 116.963 217.498L28.499 214.036C26.6725 213.965 25.1382 212.643 24.7996 210.851L9.72646 131.058C9.28107 128.7 11.0468 126.502 13.4493 126.422Z" fill="#D6D7D6"/>
<path d="M361.72 219.288C361.72 219.288 369.903 214.415 373.59 213.59C373.59 213.59 373.629 215.154 373.456 215.537C373.456 215.537 368.959 217.374 362.688 220.984C362.688 220.984 362.204 220.343 361.721 219.288H361.72Z" fill="#11ABA3"/>
<path d="M362.611 221.357L362.459 221.155C362.438 221.128 361.95 220.476 361.46 219.405L361.353 219.173L361.574 219.041C361.909 218.842 369.838 214.137 373.527 213.311L373.867 213.235L373.876 213.583C373.883 213.854 373.907 215.233 373.716 215.653L373.669 215.757L373.564 215.801C373.519 215.818 369.01 217.673 362.831 221.231L362.611 221.357ZM362.09 219.401C362.36 219.955 362.619 220.373 362.773 220.605C368.307 217.436 372.467 215.642 373.224 215.323C373.281 215.071 373.309 214.508 373.308 213.954C369.924 214.868 363.38 218.645 362.09 219.401Z" fill="#11ABA3"/>
<path d="M377.191 212.176C377.191 212.176 385.47 209.517 387.903 208.924C387.903 208.924 388.524 210.221 388.598 211.339C388.598 211.339 379.679 213.671 377.323 214.615C377.323 214.615 377.012 213.563 377.191 212.176H377.191Z" fill="#11ABA3"/>
<path d="M377.137 214.997L377.047 214.696C377.034 214.651 376.722 213.57 376.907 212.14L376.93 211.96L377.103 211.905C377.186 211.878 385.419 209.236 387.835 208.646L388.062 208.592L388.162 208.802C388.189 208.856 388.806 210.162 388.883 211.32L388.9 211.556L388.67 211.616C388.581 211.638 379.741 213.953 377.428 214.881L377.136 214.997H377.137ZM377.454 212.392C377.374 213.192 377.46 213.862 377.529 214.23C380.016 213.315 386.894 211.492 388.289 211.125C388.193 210.397 387.893 209.624 387.739 209.26C385.31 209.885 378.625 212.018 377.454 212.393V212.392Z" fill="#11ABA3"/>
<g opacity="0.2">
<path d="M383.347 223.273C386.795 223.273 389.591 218.938 389.591 213.591C389.591 208.244 386.795 203.909 383.347 203.909C379.899 203.909 377.104 208.244 377.104 213.591C377.104 218.938 379.899 223.273 383.347 223.273Z" fill="white"/>
<path d="M383.347 223.558C379.746 223.558 376.817 219.087 376.817 213.591C376.817 208.095 379.746 203.623 383.347 203.623C386.947 203.623 389.876 208.095 389.876 213.591C389.876 219.087 386.947 223.558 383.347 223.558ZM383.347 204.195C380.062 204.195 377.39 208.409 377.39 213.591C377.39 218.772 380.062 222.987 383.347 222.987C386.631 222.987 389.304 218.772 389.304 213.591C389.304 208.409 386.631 204.195 383.347 204.195Z" fill="black"/>
</g>
<g opacity="0.2">
<path d="M366.965 223.273C370.624 223.273 373.59 218.938 373.59 213.591C373.59 208.244 370.624 203.909 366.965 203.909C363.306 203.909 360.34 208.244 360.34 213.591C360.34 218.938 363.306 223.273 366.965 223.273Z" fill="white"/>
<path d="M366.965 223.558C363.154 223.558 360.054 219.087 360.054 213.591C360.054 208.095 363.154 203.623 366.965 203.623C370.776 203.623 373.876 208.095 373.876 213.591C373.876 219.087 370.776 223.558 366.965 223.558ZM366.965 204.195C363.47 204.195 360.626 208.409 360.626 213.591C360.626 218.772 363.47 222.987 366.965 222.987C370.46 222.987 373.304 218.772 373.304 213.591C373.304 208.409 370.46 204.195 366.965 204.195Z" fill="black"/>
</g>
<path d="M371.904 207.141C371.904 207.141 372.832 208.711 375.06 208.578C377.287 208.445 379.509 205.958 379.509 205.958C379.509 205.958 378.236 207.275 377.37 210.791C377.37 210.791 376.797 209.556 375.193 209.867C373.59 210.178 373.42 211.408 373.42 211.408C373.42 211.408 372.958 208.529 371.904 207.141Z" fill="#42C0BD"/>
<path d="M373.425 213.243L373.137 211.453C373.133 211.425 372.713 208.868 371.805 207.495C371.715 207.379 371.666 207.299 371.658 207.285L372.133 206.967C372.181 207.03 372.228 207.096 372.273 207.164C372.574 207.54 373.433 208.395 375.043 208.291C377 208.175 379.016 206.068 379.269 205.795C379.288 205.774 379.299 205.762 379.304 205.758L379.723 206.146C379.719 206.152 379.71 206.162 379.696 206.177C379.535 206.361 378.424 207.714 377.649 210.858L377.453 211.649L377.111 210.911C377.09 210.87 376.593 209.89 375.249 210.147C373.879 210.413 373.71 211.406 373.703 211.448L373.426 213.243H373.425ZM372.903 208.413C373.196 209.153 373.402 209.932 373.532 210.503C373.818 210.131 374.308 209.748 375.139 209.587C376.133 209.391 376.829 209.744 377.242 210.144C377.548 209.039 377.89 208.173 378.205 207.513C377.348 208.155 376.223 208.793 375.076 208.862C374.145 208.916 373.436 208.7 372.903 208.413V208.413Z" fill="#42C0BD"/>
<path d="M387.816 206.831C387.816 206.831 389.168 208.235 389.822 207.847C389.835 207.839 389.85 207.846 389.85 207.862V210.968L389.382 211.029C389.382 211.029 389.145 209.051 387.816 206.831Z" fill="#42C0BD"/>
<path d="M389.132 211.351L389.097 211.065C389.095 211.045 388.848 209.114 387.57 206.978L386.288 204.837L388.022 206.634C388.524 207.153 389.369 207.783 389.675 207.602L389.821 207.515L390.127 207.684L390.136 207.863V211.219L389.132 211.35V211.351ZM388.714 207.923C389.197 208.973 389.444 209.877 389.564 210.429V208.204H389.559C389.288 208.204 388.992 208.085 388.714 207.923Z" fill="#42C0BD"/>
<path d="M358.843 208.903C358.843 208.903 360.626 208.17 362.526 206.41C362.526 206.41 360.051 209.65 360.341 214.052C360.341 214.052 360.212 213.142 358.653 211.585L358.843 208.902V208.903Z" fill="#42C0BD"/>
<path d="M360.057 214.091C360.056 214.086 359.898 213.231 358.451 211.786L358.359 211.694L358.57 208.704L358.734 208.636C358.752 208.629 360.496 207.898 362.331 206.199L362.754 206.582C362.73 206.613 360.348 209.794 360.627 214.032L360.058 214.091H360.057ZM358.948 211.475C359.446 211.982 359.796 212.421 360.043 212.785C360.143 210.641 360.824 208.862 361.412 207.702C360.349 208.489 359.471 208.929 359.117 209.092L358.948 211.475L358.948 211.475Z" fill="#42C0BD"/>
<path d="M337.202 222.535C337.202 222.535 346.111 212.944 349.051 211.63C351.285 210.632 358.003 209.09 358.003 209.09L357.784 211.587C357.784 211.587 350.675 212.243 347.822 214.783C344.97 217.323 340.099 222.228 340.099 222.228C340.099 222.228 339.396 222.798 338.694 222.798C337.992 222.798 337.202 222.535 337.202 222.535Z" fill="#42C0BD"/>
<path d="M338.694 223.082C337.954 223.082 337.145 222.815 337.111 222.804L336.69 222.664L336.992 222.339C337.357 221.945 345.974 212.691 348.933 211.368C351.167 210.37 357.664 208.874 357.939 208.812L358.323 208.724L358.048 211.848L357.81 211.87C357.74 211.877 350.761 212.548 348.013 214.995C345.199 217.501 340.35 222.38 340.301 222.429C340.247 222.476 339.488 223.083 338.694 223.083V223.082ZM337.735 222.382C338.006 222.446 338.363 222.511 338.694 222.511C339.283 222.511 339.912 222.011 339.918 222.005C339.944 221.978 344.805 217.085 347.632 214.569C350.257 212.231 356.231 211.465 357.519 211.325L357.684 209.458C356.228 209.8 351.045 211.05 349.168 211.89C346.626 213.025 339.356 220.66 337.735 222.382Z" fill="#42C0BD"/>
<path d="M362.245 220.721C360.381 221.83 359.439 222.555 359.439 222.555C359.439 222.555 358.694 223.066 357.993 223.009C357.294 222.953 356.527 222.628 356.527 222.628C356.527 222.628 360.84 219.219 361.488 218.548" fill="#11ABA3"/>
<path d="M358.103 223.299C358.058 223.299 358.014 223.296 357.97 223.293C357.232 223.234 356.448 222.904 356.415 222.889L355.972 222.702L356.349 222.403C356.392 222.369 360.655 218.998 361.281 218.348L361.694 218.746C361.152 219.306 358.202 221.663 357.107 222.532C357.368 222.614 357.702 222.698 358.016 222.724C358.514 222.766 359.093 222.445 359.276 222.319C359.302 222.298 360.24 221.58 362.098 220.475L362.391 220.966C360.566 222.051 359.622 222.773 359.613 222.781C359.569 222.811 358.85 223.299 358.102 223.299H358.103Z" fill="#11ABA3"/>
<path d="M373.59 213.001C373.59 213.001 376.219 212.203 377.103 211.926C377.103 211.926 377.031 213.171 377.103 214.223C377.103 214.223 373.593 214.874 373.526 215.207C373.526 215.207 373.718 214.759 373.589 213.001H373.59Z" fill="#11ABA3"/>
<path d="M372.7 217.852L373.245 215.149C373.251 215.123 373.257 215.096 373.271 215.064C373.302 214.942 373.406 214.404 373.305 213.022L373.288 212.795L373.508 212.728C373.508 212.728 376.135 211.931 377.018 211.653L377.414 211.528L377.39 211.942C377.389 211.954 377.319 213.182 377.389 214.203L377.407 214.457L377.156 214.504C375.735 214.767 374.073 215.158 373.777 215.349L372.7 217.852L372.7 217.852ZM373.891 213.208C373.933 213.886 373.925 214.359 373.901 214.683C374.391 214.506 375.258 214.281 376.803 213.989C376.774 213.366 376.786 212.722 376.8 212.319C375.924 212.59 374.444 213.04 373.891 213.208H373.891Z" fill="#11ABA3"/>
<path d="M383.347 223.558C379.746 223.558 376.817 219.087 376.817 213.591C376.817 208.095 379.746 203.623 383.347 203.623C386.947 203.623 389.876 208.095 389.876 213.591C389.876 219.087 386.947 223.558 383.347 223.558ZM383.347 204.195C380.062 204.195 377.39 208.409 377.39 213.591C377.39 218.772 380.062 222.987 383.347 222.987C386.631 222.987 389.304 218.772 389.304 213.591C389.304 208.409 386.631 204.195 383.347 204.195Z" fill="#42C0BD"/>
<path d="M366.965 223.558C363.154 223.558 360.054 219.087 360.054 213.591C360.054 208.095 363.154 203.623 366.965 203.623C370.776 203.623 373.876 208.095 373.876 213.591C373.876 219.087 370.776 223.558 366.965 223.558ZM366.965 204.195C363.47 204.195 360.626 208.409 360.626 213.591C360.626 218.772 363.47 222.987 366.965 222.987C370.46 222.987 373.304 218.772 373.304 213.591C373.304 208.409 370.46 204.195 366.965 204.195Z" fill="#42C0BD"/>
<path d="M217.405 212.1L221.886 200.877H303.397L311.683 211.527L217.405 212.1Z" fill="#D6D7D6"/>
<path d="M216.981 212.39L221.692 200.592H303.537L312.265 211.811L216.981 212.39V212.39ZM222.08 201.164L217.827 211.814L311.1 211.246L303.256 201.164H222.08V201.164Z" fill="#D6D7D6"/>
<path d="M220.156 209.99L223.722 198.963H300.857L307.96 210.367L220.156 209.99Z" fill="#F5F5F5"/>
<path d="M308.993 210.945L219.371 210.559L223.304 198.393H301.175L308.992 210.945H308.993ZM220.941 209.423L306.927 209.793L300.539 199.536H224.138L220.941 209.423L220.941 209.423Z" fill="#F5F5F5"/>
<path d="M311.905 209.758H217.327C216.853 209.758 216.468 210.142 216.468 210.616V213.758C216.468 214.232 216.853 214.616 217.327 214.616H311.905C312.379 214.616 312.764 214.232 312.764 213.758V210.616C312.764 210.142 312.379 209.758 311.905 209.758Z" fill="#999999"/>
<path d="M277.655 209.758H250.461V207.09C250.461 206.609 250.853 206.219 251.335 206.219H276.782C277.264 206.219 277.655 206.609 277.655 207.09V209.758H277.655Z" fill="#999999"/>
<path d="M277.656 208.634H250.462V209.777H277.656V208.634Z" fill="#5E5F5F"/>
<path d="M63.5105 182.077C68.9534 180.501 71.8606 174.046 70.0039 167.66C68.1471 161.274 62.2296 157.374 56.7867 158.95C51.3438 160.526 48.4366 166.98 50.2934 173.366C52.1501 179.753 58.0676 183.652 63.5105 182.077Z" fill="#F5F5F5"/>
<path d="M129.4 104.515L128.55 103.749C128.617 103.676 135.201 96.3374 137.696 87.6789C140.25 78.8217 143.94 72.3959 143.977 72.3325L144.969 72.9037C144.932 72.9663 141.309 79.2791 138.797 87.9958C136.226 96.9143 129.678 104.209 129.4 104.515V104.515Z" fill="#09524D"/>
<path d="M90.3271 108.42C97.6571 106.298 101.572 97.6052 99.0718 89.0048C96.5713 80.4043 88.6021 75.1526 81.2721 77.2748C73.942 79.397 70.0269 88.0895 72.5274 96.69C75.0279 105.29 82.9971 110.542 90.3271 108.42Z" fill="#0E8780"/>
<path d="M79.015 115.541L78.0445 114.935L91.9481 92.7753L77.4102 94.533L90.4595 73.6703L91.4311 74.275L79.6493 93.1112L94.1912 91.3536L79.015 115.541Z" fill="#09524D"/>
</svg>
